# AST/ASF file generated using VICON BodyLanguage
# -----------------------------------------------
:version 1.10
:name VICON
:units
  mass 1.0
  length 0.45
  angle deg
:documentation
   .ast/.asf automatically generated from VICON data using
   VICON BodyBuilder and BodyLanguage model FoxedUp or BRILLIANT.MOD
:root
   order TX TY TZ RX RY RZ
   axis XYZ
   position 0 0 0  
   orientation 0 0 0 
:bonedata
  begin
     id 1 
     name lhipjoint
     direction 0.621036 -0.695554 0.361275 
     length 2.46325 
     axis 0 0 0  XYZ
  end
  begin
     id 2 
     name lfemur
     direction 0.34202 -0.939693 0  
     length 6.54784  
     axis 0 0 20  XYZ
    dof rx ry rz
    limits (-160.0 20.0)
           (-70.0 70.0)
           (-60.0 70.0)
  end
  begin
     id 3 
     name ltibia
     direction 0.34202 -0.939693 0   
     length 7.84737   
     axis 0 0 20   XYZ
    dof rx
    limits (-10.0 170.0)
  end
  begin
     id 4 
     name lfoot
     direction 0.0790693 -0.217241 0.97291   
     length 2.59747   
     axis -90 7.62852e-016 20   XYZ
    dof rx rz
    limits (-45.0 90.0)
           (-70.0 20.0)
  end
  begin
     id 5 
     name ltoes
     direction 1.53572e-011 -4.21898e-011 1   
     length 1.29919   
     axis -90 7.62852e-016 20   XYZ
    dof rx
    limits (-90.0 20.0)
  end
  begin
     id 6 
     name rhipjoint
     direction -0.602353 -0.708375 0.367935   
     length 2.41867  
     axis 0 0 0  XYZ 
  end
  begin
     id 7 
     name rfemur
     direction -0.34202 -0.939693 0   
     length 6.92065   
     axis 0 0 -20   XYZ
    dof rx ry rz
    limits (-160.0 20.0)
           (-70.0 70.0)
           (-70.0 60.0)
  end
  begin
     id 8 
     name rtibia
     direction -0.34202 -0.939693 0   
     length 7.88883   
     axis 0 0 -20   XYZ
    dof rx
    limits (-10.0 170.0)
 end
 begin
     id 9 
     name rfoot
     direction -0.0768692 -0.211196 0.974416   
     length 2.43714  
     axis -90 -7.62852e-016 -20   XYZ
    dof rx rz
    limits (-45.0 90.0)
           (-20.0 70.0)
  end
  begin
     id 10 
     name rtoes
     direction -1.53575e-011 -4.21933e-011 1   
     length 1.22113   
     axis -90 -7.62852e-016 -20   XYZ
    dof rx
    limits (-90.0 20.0)
  end
  begin
     id 11 
     name lowerback
     direction 0.0197937 0.98943 -0.143655   
     length 2.16931   
     axis 0 0 0   XYZ
    dof rx ry rz
    limits (-20.0 45.0)
           (-30.0 30.0)
           (-30.0 30.0)
  end
  begin
     id 12 
     name upperback
     direction -0.00183968 0.999975 0.00684288   
     length 2.17221   
     axis 0 0 0   XYZ
    dof rx ry rz
    limits (-20.0 45.0)
           (-30.0 30.0)
           (-30.0 30.0)
  end
  begin
     id 13 
     name thorax
     direction -0.00950244 0.997208 0.0740685   
     length 2.22549   
     axis 0 0 0   XYZ
    dof rx ry rz
    limits (-20.0 45.0)
           (-30.0 30.0)
           (-30.0 30.0)
  end
  begin
     id 14 
     name lowerneck
     direction 0.0218238 0.996215 0.0841425   
     length 1.77269   
     axis 0 0 0   XYZ
    dof rx ry rz
    limits (-20.0 45.0)
           (-30.0 30.0)
           (-30.0 30.0)
  end
  begin
     id 15 
     name upperneck
     direction -0.00430652 0.994214 -0.107332   
     length 1.76534   
     axis 0 0 0   XYZ
    dof rx ry rz
    limits (-20.0 45.0)
           (-30.0 30.0)
           (-30.0 30.0)
  end
  begin
     id 16
     name head
     direction -0.00328946 0.998959 -0.0454998  
     length 1.82634  
     axis 0 0 0   XYZ
    dof rx ry rz
    limits (-20.0 45.0)
           (-30.0 30.0)
           (-30.0 30.0)
  end
  begin
     id 17 
     name lclavicle
     direction 0.970962 0.239191 0.00450212  
     length 3.84872  
     axis 0 0 0   XYZ
    dof ry rz
    limits (-20.0 10.0)
           (0.0 20.0)
  end
  begin
     id 18 
     name lhumerus
     direction 1 -4.48966e-011 5.74696e-028   
     length 5.22771   
     axis 180 -30 -90   XYZ
    dof rx ry rz
    limits (-60.0 90.0)
           (-90.0 90.0)
           (-90.0 90.0)
  end
  begin
     id 19
     name lradius
     direction 1 -4.4896e-011 4.25109e-027   
     length 3.45251   
     axis 180 -30 -90   XYZ
    dof rx
    limits (-10.0 170.0)
  end
  begin
     id 20
     name lwrist
     direction 1 -4.48971e-011 1.15382e-027   
     length 1.72626   
     axis -5.52449e-016 90 90   XYZ
    dof ry
    limits (-180.0 0.0)
 end
  begin
     id 21 
     name lhand
     direction 1 -4.49034e-011 2.30765e-027   
     length 0.552119   
     axis -1.47248e-015 90 90   XYZ
    dof rx rz
    limits (-90.0 90.0)
           (-45.0 45.0)
  end
  begin
     id 22 
     name lfingers
     direction 1 -4.48951e-011 4.61529e-027   
     length 0.445133   
     axis -2.94495e-015 90 90   XYZ
    dof rx
    limits (0.0 90.0)
  end
  begin
     id 23
     name lthumb
     direction 0.707107 -6.34991e-011 0.707107   
     length 0.639124   
     axis -90 45 2.85299e-015   XYZ
    dof rx rz
    limits (-45.0 45.0)
           (-45.0 45.0)
  end
  begin
     id 24 
     name rclavicle
     direction -0.97424 0.222511 -0.0366699   
     length 3.73439  
     axis 0 0 0   XYZ 
    dof ry rz
    limits (-10.0 20.0)
           (-20.0 0.0)
  end
  begin
     id 25 
     name rhumerus
     direction -1 -4.48956e-011 -4.97258e-028  
     length 5.2398   
     axis 180 30 90   XYZ
    dof rx ry rz
    limits (-90.0 60.0)
           (-90.0 90.0)
           (-90.0 90.0)
  end
  begin
     id 26 
     name rradius
     direction -1 -4.4897e-011 -1.72611e-027   
     length 3.48042   
     axis 180 30 90   XYZ
    dof rx
    limits (-10.0 170.0)
  end
  begin
     id 27 
     name rwrist
     direction -1 -4.48976e-011 1.15382e-027   
     length 1.74021   
     axis -5.52449e-016 -90 -90   XYZ
    dof ry
    limits (-180.0 0.0)
  end
  begin
     id 28
     name rhand
     direction -1 -4.48963e-011 2.30765e-027   
     length 0.618713   
     axis -1.47248e-015 -90 -90   XYZ
    dof rx rz
    limits (-90.0 90.0)
           (-45.0 45.0)
  end
  begin
     id 29
     name rfingers
     direction -1 -4.4888e-011 4.61529e-027   
     length 0.498823   
     axis -2.94495e-015 -90 -90   XYZ
    dof rx
    limits (0.0 90.0)
  end
  begin
     id 30
     name rthumb
     direction -0.707107 -6.34968e-011 0.707107   
     length 0.716213   
     axis -90 -45 -2.85299e-015   XYZ
    dof rx rz
    limits (-45.0 45.0)
           (-45.0 45.0)
  end
:hierarchy
  begin
    root lhipjoint rhipjoint lowerback
    lhipjoint lfemur
    lfemur ltibia
    ltibia lfoot
    lfoot ltoes
    rhipjoint rfemur
    rfemur rtibia
    rtibia rfoot
    rfoot rtoes
    lowerback upperback
    upperback thorax
    thorax lowerneck lclavicle rclavicle
    lowerneck upperneck
    upperneck head
    lclavicle lhumerus
    lhumerus lradius
    lradius lwrist
    lwrist lhand lthumb
    lhand lfingers
    rclavicle rhumerus
    rhumerus rradius
    rradius rwrist
    rwrist rhand rthumb
    rhand rfingers
  end

#!OML:ASF G:\JayActor3\Patient Classification 1\Patient 1\Session 5\male.ASF
:FULLY-SPECIFIED
:DEGREES
119
root -33.7007 17.2437 -5.75635 152.552 -88.5939 -118.235
lowerback 27.5188 -0.880219 1.98295
upperback 4.07425 -0.874832 0.123646
thorax -10.728 -0.61387 -0.666532
lowerneck 3.53785 1.3753 1.89696
upperneck -19.4277 1.64224 -0.421551
head -6.45475 0.505834 -0.538899
rclavicle -5.68524e-014 -7.73272e-014
rhumerus -28.1913 4.79713 -88.1915
rradius 39.8284
rwrist -7.25234
rhand -20.6844 -7.27906
rfingers 7.12502
rthumb 5.67906 -37.183
lclavicle -5.68524e-014 -7.73272e-014
lhumerus -29.2463 -6.8673 88.5446
lradius 36.5799
lwrist 26.1235
lhand -18.9221 10.4496
lfingers 7.12502
lthumb 7.38039 40.3009
rfemur -62.7357 0.827049 20.6883
rtibia 37.9833
rfoot -8.26824 -12.9321
rtoes 8.1071
lfemur -52.7642 5.10012 -24.3269
ltibia 19.5267
lfoot -0.538682 2.54315
ltoes -0.404363
120
root -33.6671 17.2347 -5.72845 160.217 -88.4359 -125.931
lowerback 27.7051 -0.823908 1.97375
upperback 4.05028 -0.806841 0.0910643
thorax -10.8499 -0.584716 -0.71989
lowerneck 3.58863 1.39981 1.91903
upperneck -19.5728 1.66496 -0.483178
head -6.50886 0.516375 -0.56462
rclavicle 5.24792e-014 7.33515e-014
rhumerus -28.1555 4.77423 -88.1609
rradius 39.7733
rwrist -7.19339
rhand -20.6767 -7.27669
rfingers 7.12502
rthumb 5.68653 -37.1804
lclavicle 5.24792e-014 7.33515e-014
lhumerus -29.1362 -6.76001 88.5093
lradius 36.5037
lwrist 26.1301
lhand -18.9467 10.4494
lfingers 7.12502
lthumb 7.35657 40.3015
rfemur -63.0907 0.889858 20.5351
rtibia 38.3452
rfoot -7.99923 -12.8315
rtoes 7.97915
lfemur -52.961 5.31695 -24.5856
ltibia 19.6919
lfoot -0.572668 2.4194
ltoes -0.181831
121
root -33.6331 17.2251 -5.70048 166.918 -88.2383 -132.673
lowerback 27.8808 -0.7608 1.9377
upperback 4.03374 -0.739144 0.057243
thorax -10.9575 -0.554809 -0.759654
lowerneck 3.68582 1.41486 1.97326
upperneck -19.7339 1.67878 -0.547918
head -6.57609 0.520481 -0.596662
rclavicle 1.41137e-014 6.65929e-015
rhumerus -28.0993 4.78449 -88.1399
rradius 39.7192
rwrist -7.11947
rhand -20.6472 -7.28194
rfingers 7.12502
rthumb 5.71494 -37.1849
lclavicle 1.41137e-014 6.65929e-015
lhumerus -29.0277 -6.64539 88.4669
lradius 36.4489
lwrist 26.1454
lhand -18.991 10.445
lfingers 7.12502
lthumb 7.31379 40.2986
rfemur -63.4625 0.967653 20.3687
rtibia 38.7401
rfoot -7.71826 -12.7351
rtoes 7.83685
lfemur -53.1499 5.54535 -24.8465
ltibia 19.8565
lfoot -0.612079 2.30176
ltoes 0.0530989
122
root -33.5988 17.2147 -5.67228 172.973 -88.0019 -138.775
lowerback 28.0429 -0.689012 1.86422
upperback 4.02382 -0.672832 0.0200498
thorax -11.0502 -0.524173 -0.781678
lowerneck 3.72391 1.44975 1.97909
upperneck -19.8182 1.71845 -0.59445
head -6.60867 0.54098 -0.615806
rclavicle 1.11319e-014 1.61016e-014
rhumerus -28.023 4.83218 -88.1265
rradius 39.6709
rwrist -7.04462
rhand -20.615 -7.28637
rfingers 7.12502
rthumb 5.74609 -37.1885
lclavicle 1.11319e-014 1.61016e-014
lhumerus -28.9212 -6.52574 88.4219
lradius 36.4116
lwrist 26.1631
lhand -19.0489 10.4561
lfingers 7.12502
lthumb 7.25798 40.3116
rfemur -63.8542 1.04223 20.1927
rtibia 39.167
rfoot -7.41512 -12.6275
rtoes 7.68529
lfemur -53.3434 5.79023 -25.1272
ltibia 20.0381
lfoot -0.666154 2.18338
ltoes 0.285405
123
root -33.5641 17.2036 -5.64323 177.471 -87.7255 -143.34
lowerback 28.2018 -0.617723 1.79358
upperback 4.02348 -0.607308 -0.0142285
thorax -11.1302 -0.494154 -0.802153
lowerneck 3.7404 1.49316 1.97004
upperneck -19.8535 1.77024 -0.635045
head -6.62175 0.569262 -0.631041
rclavicle 8.54774e-015 -1.68967e-015
rhumerus -27.9273 4.91282 -88.1223
rradius 39.63
rwrist -6.96417
rhand -20.594 -7.29302
rfingers 7.12502
rthumb 5.76633 -37.1946
lclavicle 8.54774e-015 -1.68967e-015
lhumerus -28.82 -6.4057 88.3745
lradius 36.3922
lwrist 26.1811
lhand -19.1179 10.4579
lfingers 7.12502
lthumb 7.19131 40.3157
rfemur -64.248 1.09849 20.0543
rtibia 39.6241
rfoot -7.08704 -12.4911
rtoes 7.5055
lfemur -53.5384 6.0448 -25.384
ltibia 20.2576
lfoot -0.743513 2.07367
ltoes 0.510386
124
root -33.5286 17.1915 -5.61323 180.222 -87.4202 -146.177
lowerback 28.3611 -0.552354 1.75278
upperback 4.03098 -0.54052 -0.0397224
thorax -11.2014 -0.464821 -0.830696
lowerneck 3.73434 1.5435 1.94197
upperneck -19.8386 1.83094 -0.672756
head -6.61486 0.604345 -0.642379
rclavicle 2.5842e-015 -5.86415e-015
rhumerus -27.8186 5.02094 -88.1244
rradius 39.6015
rwrist -6.88612
rhand -20.5732 -7.30094
rfingers 7.12502
rthumb 5.78639 -37.2019
lclavicle 2.5842e-015 -5.86415e-015
lhumerus -28.7284 -6.29392 88.3286
lradius 36.388
lwrist 26.1979
lhand -19.1877 10.4561
lfingers 7.12502
lthumb 7.12393 40.3162
rfemur -64.6395 1.12155 19.9909
rtibia 40.1135
rfoot -6.73498 -12.3209
rtoes 7.18309
lfemur -53.7407 6.30528 -25.5907
ltibia 20.5254
lfoot -0.847421 1.97363
ltoes 0.725368
125
root -33.4928 17.1777 -5.5829 182.491 -87.091 -148.541
lowerback 28.5031 -0.485242 1.69497
upperback 4.04512 -0.477622 -0.0653651
thorax -11.256 -0.436596 -0.848549
lowerneck 3.70464 1.60215 1.89267
upperneck -19.7786 1.90283 -0.703373
head -6.58951 0.646955 -0.648203
rclavicle 1.07344e-014 5.96354e-016
rhumerus -27.6958 5.14682 -88.1346
rradius 39.5871
rwrist -6.81138
rhand -20.5576 -7.31001
rfingers 7.12502
rthumb 5.8015 -37.2106
lclavicle 1.07344e-014 5.96354e-016
lhumerus -28.6451 -6.19082 88.2816
lradius 36.4
lwrist 26.2157
lhand -19.2538 10.4402
lfingers 7.12502
lthumb 7.06012 40.3025
rfemur -65.0499 1.11725 19.9523
rtibia 40.6402
rfoot -6.37619 -12.1333
rtoes 6.58831
lfemur -53.9686 6.577 -25.7966
ltibia 20.8504
lfoot -0.982892 1.87483
ltoes 0.915384
126
root -33.4568 17.1624 -5.55244 184.374 -86.7423 -150.526
lowerback 28.626 -0.416646 1.62316
upperback 4.06562 -0.418251 -0.0928041
thorax -11.2936 -0.409437 -0.859373
lowerneck 3.70929 1.65163 1.86725
upperneck -19.73 1.96429 -0.741074
head -6.57364 0.683297 -0.659944
rclavicle 9.93923e-015 -1.03368e-014
rhumerus -27.5667 5.27695 -88.1526
rradius 39.5943
rwrist -6.7467
rhand -20.5432 -7.31544
rfingers 7.12502
rthumb 5.81534 -37.2156
lclavicle 9.93923e-015 -1.03368e-014
lhumerus -28.5718 -6.10838 88.2335
lradius 36.4268
lwrist 26.2381
lhand -19.3032 10.4211
lfingers 7.12502
lthumb 7.01244 40.285
rfemur -65.4795 1.08872 19.9296
rtibia 41.2104
rfoot -6.03325 -11.9444
rtoes 5.53305
lfemur -54.2189 6.85653 -26.0002
ltibia 21.2273
lfoot -1.14637 1.78266
ltoes 1.08024
127
root -33.4202 17.1458 -5.52161 185.494 -86.3902 -151.767
lowerback 28.743 -0.357529 1.57384
upperback 4.09552 -0.364716 -0.115532
thorax -11.3174 -0.385926 -0.87587
lowerneck 3.75351 1.69009 1.87309
upperneck -19.7028 2.01214 -0.792396
head -6.57126 0.711582 -0.680853
rclavicle -3.97569e-015 2.74323e-014
rhumerus -27.4357 5.40028 -88.1784
rradius 39.6254
rwrist -6.70033
rhand -20.5336 -7.31454
rfingers 7.12502
rthumb 5.82466 -37.2145
lclavicle -3.97569e-015 2.74323e-014
lhumerus -28.5074 -6.04869 88.1836
lradius 36.4684
lwrist 26.2666
lhand -19.3347 10.3983
lfingers 7.12502
lthumb 6.98203 40.2632
rfemur -65.9108 1.03695 19.9368
rtibia 41.8298
rfoot -5.75082 -11.7085
rtoes 4.09047
lfemur -54.4748 7.15697 -26.1913
ltibia 21.6392
lfoot -1.32907 1.67049
ltoes 1.22769
128
root -33.3832 17.1282 -5.49098 186.585 -86.0364 -152.99
lowerback 28.849 -0.300789 1.50916
upperback 4.13064 -0.320133 -0.142893
thorax -11.3297 -0.365976 -0.885583
lowerneck 3.82235 1.7214 1.89662
upperneck -19.6897 2.05189 -0.846693
head -6.5776 0.734692 -0.705469
rclavicle -3.61788e-014 -4.19436e-014
rhumerus -27.314 5.51065 -88.2129
rradius 39.6853
rwrist -6.68244
rhand -20.5287 -7.29952
rfingers 7.12502
rthumb 5.82939 -37.1993
lclavicle -3.61788e-014 -4.19436e-014
lhumerus -28.4555 -6.01675 88.1317
lradius 36.5244
lwrist 26.302
lhand -19.3468 10.381
lfingers 7.12502
lthumb 6.97037 40.2463
rfemur -66.3535 0.979816 19.9085
rtibia 42.498
rfoot -5.54625 -11.399
rtoes 2.26535
lfemur -54.7399 7.50419 -26.4376
ltibia 22.0689
lfoot -1.52141 1.49856
ltoes 1.36744
129
root -33.3457 17.1092 -5.46054 187.924 -85.6878 -154.461
lowerback 28.9263 -0.246852 1.41783
upperback 4.17 -0.289158 -0.181346
thorax -11.3228 -0.351178 -0.887587
lowerneck 3.90794 1.74416 1.94001
upperneck -19.6906 2.08129 -0.904886
head -6.59122 0.751358 -0.734228
rclavicle 8.34896e-015 9.93923e-015
rhumerus -27.2045 5.5992 -88.2562
rradius 39.7762
rwrist -6.69545
rhand -20.5168 -7.29246
rfingers 7.12502
rthumb 5.84085 -37.192
lclavicle 8.34896e-015 9.93923e-015
lhumerus -28.4129 -6.01238 88.0762
lradius 36.5938
lwrist 26.3407
lhand -19.3405 10.3637
lfingers 7.12502
lthumb 6.97647 40.2287
rfemur -66.8188 0.925783 19.8002
rtibia 43.2088
rfoot -5.42734 -10.9926
rtoes 0.252397
lfemur -55.0215 7.89535 -26.7706
ltibia 22.4989
lfoot -1.70768 1.25501
ltoes 1.51074
130
root -33.3085 17.0899 -5.43044 189.41 -85.3396 -156.104
lowerback 29.0008 -0.194178 1.30512
upperback 4.21918 -0.268935 -0.232514
thorax -11.3035 -0.340875 -0.887678
lowerneck 3.97628 1.7695 1.96786
upperneck -19.6794 2.11488 -0.948709
head -6.5982 0.770195 -0.755844
rclavicle 5.38706e-014 8.0309e-014
rhumerus -27.115 5.66502 -88.3095
rradius 39.9012
rwrist -6.74407
rhand -20.504 -7.29136
rfingers 7.12502
rthumb 5.85322 -37.1905
lclavicle 5.38706e-014 8.0309e-014
lhumerus -28.3788 -6.03348 88.0159
lradius 36.6707
lwrist 26.3755
lhand -19.3365 10.3457
lfingers 7.12502
lthumb 6.98033 40.2106
rfemur -67.2649 0.891331 19.6014
rtibia 43.9572
rfoot -5.39169 -10.4612
rtoes -1.89639
lfemur -55.2755 8.33667 -27.1833
ltibia 22.9086
lfoot -1.88687 0.942527
ltoes 1.67187
